<?xml version="1.0" encoding="UTF-8"?>
<svg width="52px" height="42px" viewBox="0 0 52 42" version="1.1" xmlns="http://www.w3.org/2000/svg" xmlns:xlink="http://www.w3.org/1999/xlink">
    <title>Combined Shape Copy</title>
    <g id="Page-1" stroke="none" stroke-width="1" fill="none" fill-rule="evenodd">
        <path d="M28,38 C29.1045695,38 30,38.8954305 30,40 C30,41.1045695 29.1045695,42 28,42 C26.8954305,42 26,41.1045695 26,40 C26,38.8954305 26.8954305,38 28,38 Z M32,34 C33.1045695,34 34,34.8954305 34,36 C34,37.1045695 33.1045695,38 32,38 C30.8954305,38 30,37.1045695 30,36 C30,34.8954305 30.8954305,34 32,34 Z M2,28 C3.1045695,28 4,28.8954305 4,30 C4,31.1045695 3.1045695,32 2,32 C0.8954305,32 0,31.1045695 0,30 C0,28.8954305 0.8954305,28 2,28 Z M20,28 C21.1045695,28 22,28.8954305 22,30 C22,31.1045695 21.1045695,32 20,32 C18.8954305,32 18,31.1045695 18,30 C18,28.8954305 18.8954305,28 20,28 Z M8,28 C9.1045695,28 10,28.8954305 10,30 C10,31.1045695 9.1045695,32 8,32 C6.8954305,32 6,31.1045695 6,30 C6,28.8954305 6.8954305,28 8,28 Z M14,28 C15.1045695,28 16,28.8954305 16,30 C16,31.1045695 15.1045695,32 14,32 C12.8954305,32 12,31.1045695 12,30 C12,28.8954305 12.8954305,28 14,28 Z M32,28 C33.1045695,28 34,28.8954305 34,30 C34,31.1045695 33.1045695,32 32,32 C30.8954305,32 30,31.1045695 30,30 C30,28.8954305 30.8954305,28 32,28 Z M44,28 C45.1045695,28 46,28.8954305 46,30 C46,31.1045695 45.1045695,32 44,32 C42.8954305,32 42,31.1045695 42,30 C42,28.8954305 42.8954305,28 44,28 Z M50,28 C51.1045695,28 52,28.8954305 52,30 C52,31.1045695 51.1045695,32 50,32 C48.8954305,32 48,31.1045695 48,30 C48,28.8954305 48.8954305,28 50,28 Z M38,28 C39.1045695,28 40,28.8954305 40,30 C40,31.1045695 39.1045695,32 38,32 C36.8954305,32 36,31.1045695 36,30 C36,28.8954305 36.8954305,28 38,28 Z M20,22 C21.1045695,22 22,22.8954305 22,24 C22,25.1045695 21.1045695,26 20,26 C18.8954305,26 18,25.1045695 18,24 C18,22.8954305 18.8954305,22 20,22 Z M2,22 C3.1045695,22 4,22.8954305 4,24 C4,25.1045695 3.1045695,26 2,26 C0.8954305,26 0,25.1045695 0,24 C0,22.8954305 0.8954305,22 2,22 Z M32,22 C33.1045695,22 34,22.8954305 34,24 C34,25.1045695 33.1045695,26 32,26 C30.8954305,26 30,25.1045695 30,24 C30,22.8954305 30.8954305,22 32,22 Z M50,22 C51.1045695,22 52,22.8954305 52,24 C52,25.1045695 51.1045695,26 50,26 C48.8954305,26 48,25.1045695 48,24 C48,22.8954305 48.8954305,22 50,22 Z M11,18 C12.6568542,18 14,19.3431458 14,21 C14,22.6568542 12.6568542,24 11,24 C9.34314575,24 8,22.6568542 8,21 C8,19.3431458 9.34314575,18 11,18 Z M41,18 C42.6568542,18 44,19.3431458 44,21 C44,22.6568542 42.6568542,24 41,24 C39.3431458,24 38,22.6568542 38,21 C38,19.3431458 39.3431458,18 41,18 Z M20,16 C21.1045695,16 22,16.8954305 22,18 C22,19.1045695 21.1045695,20 20,20 C18.8954305,20 18,19.1045695 18,18 C18,16.8954305 18.8954305,16 20,16 Z M2,16 C3.1045695,16 4,16.8954305 4,18 C4,19.1045695 3.1045695,20 2,20 C0.8954305,20 0,19.1045695 0,18 C0,16.8954305 0.8954305,16 2,16 Z M32,16 C33.1045695,16 34,16.8954305 34,18 C34,19.1045695 33.1045695,20 32,20 C30.8954305,20 30,19.1045695 30,18 C30,16.8954305 30.8954305,16 32,16 Z M50,16 C51.1045695,16 52,16.8954305 52,18 C52,19.1045695 51.1045695,20 50,20 C48.8954305,20 48,19.1045695 48,18 C48,16.8954305 48.8954305,16 50,16 Z M20,10 C21.1045695,10 22,10.8954305 22,12 C22,13.1045695 21.1045695,14 20,14 C18.8954305,14 18,13.1045695 18,12 C18,10.8954305 18.8954305,10 20,10 Z M2,10 C3.1045695,10 4,10.8954305 4,12 C4,13.1045695 3.1045695,14 2,14 C0.8954305,14 0,13.1045695 0,12 C0,10.8954305 0.8954305,10 2,10 Z M8,10 C9.1045695,10 10,10.8954305 10,12 C10,13.1045695 9.1045695,14 8,14 C6.8954305,14 6,13.1045695 6,12 C6,10.8954305 6.8954305,10 8,10 Z M14,10 C15.1045695,10 16,10.8954305 16,12 C16,13.1045695 15.1045695,14 14,14 C12.8954305,14 12,13.1045695 12,12 C12,10.8954305 12.8954305,10 14,10 Z M32,10 C33.1045695,10 34,10.8954305 34,12 C34,13.1045695 33.1045695,14 32,14 C30.8954305,14 30,13.1045695 30,12 C30,10.8954305 30.8954305,10 32,10 Z M50,10 C51.1045695,10 52,10.8954305 52,12 C52,13.1045695 51.1045695,14 50,14 C48.8954305,14 48,13.1045695 48,12 C48,10.8954305 48.8954305,10 50,10 Z M44,10 C45.1045695,10 46,10.8954305 46,12 C46,13.1045695 45.1045695,14 44,14 C42.8954305,14 42,13.1045695 42,12 C42,10.8954305 42.8954305,10 44,10 Z M38,10 C39.1045695,10 40,10.8954305 40,12 C40,13.1045695 39.1045695,14 38,14 C36.8954305,14 36,13.1045695 36,12 C36,10.8954305 36.8954305,10 38,10 Z M20,4 C21.1045695,4 22,4.8954305 22,6 C22,7.1045695 21.1045695,8 20,8 C18.8954305,8 18,7.1045695 18,6 C18,4.8954305 18.8954305,4 20,4 Z M24,0 C25.1045695,0 26,0.8954305 26,2 C26,3.1045695 25.1045695,4 24,4 C22.8954305,4 22,3.1045695 22,2 C22,0.8954305 22.8954305,0 24,0 Z" id="Combined-Shape-Copy" fill="#000000"></path>
    </g>
</svg>