<?xml version="1.0" encoding="UTF-8"?>
<svg width="78px" height="25px" viewBox="0 0 78 25" version="1.1" xmlns="http://www.w3.org/2000/svg" xmlns:xlink="http://www.w3.org/1999/xlink">
    <title>codpet copy 2</title>
    <g id="Page-1" stroke="none" stroke-width="1" fill="none" fill-rule="evenodd">
        <g id="codpet-copy-2" transform="translate(0.056000, 0.072000)" fill="#000000" fill-rule="nonzero">
            <path d="M10.392,7.392 C10.392,6.6 9.768,6.216 9.144,6.216 C8.832,6.216 8.544,6.312 8.304,6.48 C8.208,6.552 8.112,6.6 8.016,6.6 C7.944,6.6 7.872,6.576 7.8,6.552 C7.176,6.264 6.48,6.144 5.784,6.144 C2.424,6.144 0,8.976 0,12.312 C0,14.88 1.632,18.288 6,18.288 C8.712,18.288 10.848,16.656 10.848,15.552 C10.848,14.88 10.2,14.304 9.528,14.304 C9.168,14.304 8.808,14.472 8.52,14.856 C7.992,15.576 6.984,15.96 5.976,15.96 C3.12,15.96 2.4,13.512 2.4,12.216 C2.4,9.792 4.08,8.352 5.832,8.352 C6.264,8.352 7.704,8.448 7.92,9.768 C8.016,10.392 8.592,10.704 9.144,10.704 C9.768,10.704 10.392,10.32 10.392,9.576 C10.392,9.528 10.392,9.504 10.392,9.48 C10.368,9.216 10.368,8.952 10.368,8.664 C10.368,8.256 10.368,7.848 10.392,7.416 L10.392,7.392 Z" id="Path"></path>
            <path d="M18.624,18.288 C22.056,18.288 24.648,15.84 24.648,12.216 C24.648,8.712 22.056,6.144 18.624,6.144 C15.192,6.144 12.576,8.712 12.576,12.216 C12.576,15.84 15.192,18.288 18.624,18.288 Z M18.624,16.056 C16.632,16.056 15,14.568 15,12.216 C15,9.84 16.656,8.328 18.624,8.328 C20.592,8.328 22.224,9.84 22.224,12.216 C22.224,14.568 20.616,16.056 18.624,16.056 Z" id="Shape"></path>
            <path d="M35.304,0.024 C34.44,0.024 33.984,0.696 33.984,1.32 C33.984,2.448 34.8,2.496 35.424,2.496 C36.192,2.496 36.192,2.952 36.192,3.72 C36.192,5.208 36.12,7.368 36.12,7.368 C36.12,7.464 36.072,7.488 36,7.488 C35.976,7.488 35.952,7.488 35.928,7.464 C35.04,6.672 33.936,6.192 32.592,6.192 C29.28,6.192 26.784,8.712 26.784,12.216 C26.784,15.84 29.28,18.24 32.592,18.24 C33.888,18.24 35.328,17.712 36.192,16.704 C36.24,16.656 36.264,16.608 36.312,16.608 C36.336,16.608 36.384,16.656 36.408,16.728 C36.888,18.048 38.352,18.096 38.736,18.096 C40.056,18.096 40.464,17.568 40.464,16.776 C40.464,16.2 40.104,15.624 39.36,15.624 C39.336,15.624 39.312,15.624 39.288,15.624 C39.264,15.624 39.24,15.624 39.24,15.624 C38.76,15.624 38.496,15.336 38.496,14.784 C38.496,13.704 38.472,12.336 38.472,10.896 C38.472,8.016 38.496,4.8 38.568,2.712 C38.568,2.64 38.568,2.568 38.568,2.52 C38.568,0.864 37.968,0.048 36.144,0 C35.904,0 35.616,0.024 35.328,0.024 L35.304,0.024 Z" id="Shape"></path>
            <path d="M46.464,24.144 C47.28,24.12 47.664,23.52 47.664,22.944 C47.664,22.368 47.304,21.792 46.584,21.792 C45.624,21.792 45.6,21.48 45.6,20.976 C45.576,19.848 45.576,18.552 45.576,17.04 C45.576,16.944 45.6,16.92 45.624,16.92 C45.648,16.92 45.696,16.92 45.744,16.968 C46.632,17.76 47.76,18.264 49.104,18.264 C52.416,18.264 54.912,15.744 54.912,12.24 C54.912,8.616 52.416,6.216 49.104,6.216 C47.808,6.216 46.368,6.72 45.504,7.728 C45.456,7.8 45.408,7.848 45.36,7.848 C45.336,7.848 45.288,7.8 45.264,7.728 C44.976,6.912 44.208,6.36 42.936,6.36 C41.856,6.36 41.232,6.744 41.232,7.68 C41.232,8.256 41.592,8.832 42.336,8.832 C42.36,8.832 42.384,8.832 42.408,8.832 C42.432,8.832 42.456,8.832 42.456,8.832 C42.936,8.832 43.176,9.12 43.176,9.672 C43.2,12.336 43.272,16.008 43.272,18.936 C43.272,19.632 43.248,20.304 43.248,20.904 C43.248,21.576 43.176,21.864 42.552,21.864 C42.504,21.864 42.456,21.864 42.408,21.864 C42.384,21.864 42.36,21.864 42.312,21.864 C41.592,21.864 41.232,22.44 41.232,22.992 C41.232,23.976 42.048,24.168 42.408,24.144 C42.408,24.144 42.408,24.144 46.464,24.144 Z" id="Shape"></path>
            <path d="M67.68,16.344 C67.944,16.08 68.04,15.792 68.04,15.504 C68.04,14.832 67.416,14.256 66.768,14.256 C66.48,14.256 66.192,14.376 65.952,14.64 C65.256,15.384 64.344,16.104 62.832,16.104 C61.128,16.104 59.592,14.904 59.568,12.912 C59.568,12.648 59.616,12.456 59.76,12.456 C64.416,12.456 64.92,12.456 65.664,12.432 C67.2,12.384 67.944,11.472 67.944,10.344 C67.944,8.52 66.072,6.096 62.76,6.096 C59.664,6.096 57.072,8.616 57.072,12.288 C57.072,15.864 59.52,18.336 62.808,18.336 C65.232,18.336 66.528,17.544 67.68,16.344 Z M64.968,10.464 C64.32,10.488 63.24,10.488 62.256,10.488 C60.024,10.488 59.784,10.488 59.784,10.272 C59.784,9.864 60.84,8.184 62.784,8.184 C64.944,8.184 65.448,9.6 65.448,9.936 C65.448,10.224 65.256,10.44 64.968,10.464 Z" id="Shape"></path>
            <path d="M76.032,8.616 C76.752,8.616 77.088,8.04 77.088,7.488 C77.088,6.912 76.752,6.36 76.032,6.36 L74.424,6.36 C74.184,6.36 74.088,6.336 74.088,5.952 C74.088,5.952 74.136,5.04 74.136,4.392 C74.136,4.08 74.136,2.928 72.864,2.928 C72.24,2.928 71.664,3.288 71.664,4.008 C71.664,4.032 71.664,4.056 71.664,4.08 C71.688,4.344 71.688,4.632 71.688,4.92 C71.688,5.472 71.664,5.952 71.664,5.952 C71.664,6.288 71.64,6.36 71.256,6.36 L70.56,6.36 C69.84,6.36 69.48,6.912 69.48,7.464 C69.48,8.04 69.864,8.616 70.56,8.616 L71.28,8.616 C71.52,8.616 71.664,8.64 71.664,8.952 C71.664,9.048 71.664,9.168 71.664,9.312 C71.664,10.368 71.616,12.768 71.616,14.16 C71.616,15.144 71.616,18.288 75.168,18.288 C76.416,18.288 77.208,17.88 77.208,17.016 C77.208,16.488 76.824,15.96 76.176,15.96 C76.104,15.96 76.056,15.984 75.984,15.984 C75.792,16.008 75.6,16.032 75.432,16.032 C74.088,16.032 74.016,15.264 74.016,13.392 C74.016,11.808 74.088,9.768 74.088,8.88 C74.088,8.736 74.088,8.616 74.448,8.616 L76.032,8.616 Z" id="Path"></path>
        </g>
    </g>
</svg>