<?xml version="1.0" encoding="UTF-8"?>
<svg width="44px" height="44px" viewBox="0 0 44 44" version="1.1" xmlns="http://www.w3.org/2000/svg" xmlns:xlink="http://www.w3.org/1999/xlink">
    <title>icon-x</title>
    <g id="Page-1" stroke="none" stroke-width="1" fill="none" fill-rule="evenodd">
        <path d="M32,40 C33.1045695,40 34,40.8954305 34,42 C34,43.1045695 33.1045695,44 32,44 C30.8954305,44 30,43.1045695 30,42 C30,40.8954305 30.8954305,40 32,40 Z M37,40 C38.1045695,40 39,40.8954305 39,42 C39,43.1045695 38.1045695,44 37,44 C35.8954305,44 35,43.1045695 35,42 C35,40.8954305 35.8954305,40 37,40 Z M42,40 C43.1045695,40 44,40.8954305 44,42 C44,43.1045695 43.1045695,44 42,44 C40.8954305,44 40,43.1045695 40,42 C40,40.8954305 40.8954305,40 42,40 Z M4,40 C5.1045695,40 6,40.8954305 6,42 C6,43.1045695 5.1045695,44 4,44 C2.8954305,44 2,43.1045695 2,42 C2,40.8954305 2.8954305,40 4,40 Z M28.25,35 C29.3545695,35 30.25,35.8954305 30.25,37 C30.25,38.1045695 29.3545695,39 28.25,39 C27.1454305,39 26.25,38.1045695 26.25,37 C26.25,35.8954305 27.1454305,35 28.25,35 Z M38.25,35 C39.3545695,35 40.25,35.8954305 40.25,37 C40.25,38.1045695 39.3545695,39 38.25,39 C37.1454305,39 36.25,38.1045695 36.25,37 C36.25,35.8954305 37.1454305,35 38.25,35 Z M8.125,35 C9.2295695,35 10.125,35.8954305 10.125,37 C10.125,38.1045695 9.2295695,39 8.125,39 C7.0204305,39 6.125,38.1045695 6.125,37 C6.125,35.8954305 7.0204305,35 8.125,35 Z M24.5,30 C25.6045695,30 26.5,30.8954305 26.5,32 C26.5,33.1045695 25.6045695,34 24.5,34 C23.3954305,34 22.5,33.1045695 22.5,32 C22.5,30.8954305 23.3954305,30 24.5,30 Z M34.5,30 C35.6045695,30 36.5,30.8954305 36.5,32 C36.5,33.1045695 35.6045695,34 34.5,34 C33.3954305,34 32.5,33.1045695 32.5,32 C32.5,30.8954305 33.3954305,30 34.5,30 Z M12.25,30 C13.3545695,30 14.25,30.8954305 14.25,32 C14.25,33.1045695 13.3545695,34 12.25,34 C11.1454305,34 10.25,33.1045695 10.25,32 C10.25,30.8954305 11.1454305,30 12.25,30 Z M20.75,25 C21.8545695,25 22.75,25.8954305 22.75,27 C22.75,28.1045695 21.8545695,29 20.75,29 C19.6454305,29 18.75,28.1045695 18.75,27 C18.75,25.8954305 19.6454305,25 20.75,25 Z M30.75,25 C31.8545695,25 32.75,25.8954305 32.75,27 C32.75,28.1045695 31.8545695,29 30.75,29 C29.6454305,29 28.75,28.1045695 28.75,27 C28.75,25.8954305 29.6454305,25 30.75,25 Z M17,20 C18.1045695,20 19,20.8954305 19,22 C19,23.1045695 18.1045695,24 17,24 C15.8954305,24 15,23.1045695 15,22 C15,20.8954305 15.8954305,20 17,20 Z M27,20 C28.1045695,20 29,20.8954305 29,22 C29,23.1045695 28.1045695,24 27,24 C25.8954305,24 25,23.1045695 25,22 C25,20.8954305 25.8954305,20 27,20 Z M13.25,15 C14.3545695,15 15.25,15.8954305 15.25,17 C15.25,18.1045695 14.3545695,19 13.25,19 C12.1454305,19 11.25,18.1045695 11.25,17 C11.25,15.8954305 12.1454305,15 13.25,15 Z M23.25,15 C24.3545695,15 25.25,15.8954305 25.25,17 C25.25,18.1045695 24.3545695,19 23.25,19 C22.1454305,19 21.25,18.1045695 21.25,17 C21.25,15.8954305 22.1454305,15 23.25,15 Z M9.5,10 C10.6045695,10 11.5,10.8954305 11.5,12 C11.5,13.1045695 10.6045695,14 9.5,14 C8.3954305,14 7.5,13.1045695 7.5,12 C7.5,10.8954305 8.3954305,10 9.5,10 Z M19.5,10 C20.6045695,10 21.5,10.8954305 21.5,12 C21.5,13.1045695 20.6045695,14 19.5,14 C18.3954305,14 17.5,13.1045695 17.5,12 C17.5,10.8954305 18.3954305,10 19.5,10 Z M28.75,10 C29.8545695,10 30.75,10.8954305 30.75,12 C30.75,13.1045695 29.8545695,14 28.75,14 C27.6454305,14 26.75,13.1045695 26.75,12 C26.75,10.8954305 27.6454305,10 28.75,10 Z M5.75,5 C6.8545695,5 7.75,5.8954305 7.75,7 C7.75,8.1045695 6.8545695,9 5.75,9 C4.6454305,9 3.75,8.1045695 3.75,7 C3.75,5.8954305 4.6454305,5 5.75,5 Z M15.75,5 C16.8545695,5 17.75,5.8954305 17.75,7 C17.75,8.1045695 16.8545695,9 15.75,9 C14.6454305,9 13.75,8.1045695 13.75,7 C13.75,5.8954305 14.6454305,5 15.75,5 Z M32.875,5 C33.9795695,5 34.875,5.8954305 34.875,7 C34.875,8.1045695 33.9795695,9 32.875,9 C31.7704305,9 30.875,8.1045695 30.875,7 C30.875,5.8954305 31.7704305,5 32.875,5 Z M2,0 C3.1045695,0 4,0.8954305 4,2 C4,3.1045695 3.1045695,4 2,4 C0.8954305,4 0,3.1045695 0,2 C0,0.8954305 0.8954305,0 2,0 Z M7,0 C8.1045695,0 9,0.8954305 9,2 C9,3.1045695 8.1045695,4 7,4 C5.8954305,4 5,3.1045695 5,2 C5,0.8954305 5.8954305,0 7,0 Z M12,0 C13.1045695,0 14,0.8954305 14,2 C14,3.1045695 13.1045695,4 12,4 C10.8954305,4 10,3.1045695 10,2 C10,0.8954305 10.8954305,0 12,0 Z M37,0 C38.1045695,0 39,0.8954305 39,2 C39,3.1045695 38.1045695,4 37,4 C35.8954305,4 35,3.1045695 35,2 C35,0.8954305 35.8954305,0 37,0 Z" id="icon-x" fill="#000000"></path>
    </g>
</svg>