<?xml version="1.0" encoding="UTF-8"?>
<svg width="40px" height="50px" viewBox="0 0 40 50" version="1.1" xmlns="http://www.w3.org/2000/svg" xmlns:xlink="http://www.w3.org/1999/xlink">
    <title>icon-github</title>
    <g id="Page-1" stroke="none" stroke-width="1" fill="none" fill-rule="evenodd">
        <path d="M14,40 C15.1045695,40 16,40.8954305 16,42 C16,43.1045695 15.1045695,44 14,44 C12.8954305,44 12,43.1045695 12,42 C12,40.8954305 12.8954305,40 14,40 Z M9,36 C10.1045695,36 11,36.8954305 11,38 C11,39.1045695 10.1045695,40 9,40 C7.8954305,40 7,39.1045695 7,38 C7,36.8954305 7.8954305,36 9,36 Z M14,35 C15.1045695,35 16,35.8954305 16,37 C16,38.1045695 15.1045695,39 14,39 C12.8954305,39 12,38.1045695 12,37 C12,35.8954305 12.8954305,35 14,35 Z M6,32 C7.1045695,32 8,32.8954305 8,34 C8,35.1045695 7.1045695,36 6,36 C4.8954305,36 4,35.1045695 4,34 C4,32.8954305 4.8954305,32 6,32 Z M18,31 C19.1045695,31 20,31.8954305 20,33 C20,34.1045695 19.1045695,35 18,35 C16.8954305,35 16,34.1045695 16,33 C16,31.8954305 16.8954305,31 18,31 Z M2,29 C3.1045695,29 4,29.8954305 4,31 C4,32.1045695 3.1045695,33 2,33 C0.8954305,33 0,32.1045695 0,31 C0,29.8954305 0.8954305,29 2,29 Z M14,27 C15.1045695,27 16,27.8954305 16,29 C16,30.1045695 15.1045695,31 14,31 C12.8954305,31 12,30.1045695 12,29 C12,27.8954305 12.8954305,27 14,27 Z M10,24 C11.1045695,24 12,24.8954305 12,26 C12,27.1045695 11.1045695,28 10,28 C8.8954305,28 8,27.1045695 8,26 C8,24.8954305 8.8954305,24 10,24 Z M7,20 C8.1045695,20 9,20.8954305 9,22 C9,23.1045695 8.1045695,24 7,24 C5.8954305,24 5,23.1045695 5,22 C5,20.8954305 5.8954305,20 7,20 Z M6,15 C4.8954305,15 4,15.8954305 4,17 C4,18.1045695 4.8954305,19 6,19 C7.1045695,19 8,18.1045695 8,17 C8,15.8954305 7.1045695,15 6,15 Z M7,10 C5.8954305,10 5,10.8954305 5,12 C5,13.1045695 5.8954305,14 7,14 C8.1045695,14 9,13.1045695 9,12 C9,10.8954305 8.1045695,10 7,10 Z M8,5 C6.8954305,5 6,5.8954305 6,7 C6,8.1045695 6.8954305,9 8,9 C9.1045695,9 10,8.1045695 10,7 C10,5.8954305 9.1045695,5 8,5 Z M9,0 C7.8954305,0 7,0.8954305 7,2 C7,3.1045695 7.8954305,4 9,4 C10.1045695,4 11,3.1045695 11,2 C11,0.8954305 10.1045695,0 9,0 Z M14,2 C12.8954305,2 12,2.8954305 12,4 C12,5.1045695 12.8954305,6 14,6 C15.1045695,6 16,5.1045695 16,4 C16,2.8954305 15.1045695,2 14,2 Z M19,2 C17.8954305,2 17,2.8954305 17,4 C17,5.1045695 17.8954305,6 19,6 C20.1045695,6 21,5.1045695 21,4 C21,2.8954305 20.1045695,2 19,2 Z M24,2 C22.8954305,2 22,2.8954305 22,4 C22,5.1045695 22.8954305,6 24,6 C25.1045695,6 26,5.1045695 26,4 C26,2.8954305 25.1045695,2 24,2 Z M29,2 C27.8954305,2 27,2.8954305 27,4 C27,5.1045695 27.8954305,6 29,6 C30.1045695,6 31,5.1045695 31,4 C31,2.8954305 30.1045695,2 29,2 Z M34,0 C32.8954305,0 32,0.8954305 32,2 C32,3.1045695 32.8954305,4 34,4 C35.1045695,4 36,3.1045695 36,2 C36,0.8954305 35.1045695,0 34,0 Z M35,5 C33.8954305,5 33,5.8954305 33,7 C33,8.1045695 33.8954305,9 35,9 C36.1045695,9 37,8.1045695 37,7 C37,5.8954305 36.1045695,5 35,5 Z M37,10 C35.8954305,10 35,10.8954305 35,12 C35,13.1045695 35.8954305,14 37,14 C38.1045695,14 39,13.1045695 39,12 C39,10.8954305 38.1045695,10 37,10 Z M38,15 C36.8954305,15 36,15.8954305 36,17 C36,18.1045695 36.8954305,19 38,19 C39.1045695,19 40,18.1045695 40,17 C40,15.8954305 39.1045695,15 38,15 Z M30,35 C31.1045695,35 32,35.8954305 32,37 C32,38.1045695 31.1045695,39 30,39 C28.8954305,39 28,38.1045695 28,37 C28,35.8954305 28.8954305,35 30,35 Z M26,31 C27.1045695,31 28,31.8954305 28,33 C28,34.1045695 27.1045695,35 26,35 C24.8954305,35 24,34.1045695 24,33 C24,31.8954305 24.8954305,31 26,31 Z M30,27 C31.1045695,27 32,27.8954305 32,29 C32,30.1045695 31.1045695,31 30,31 C28.8954305,31 28,30.1045695 28,29 C28,27.8954305 28.8954305,27 30,27 Z M34,24 C35.1045695,24 36,24.8954305 36,26 C36,27.1045695 35.1045695,28 34,28 C32.8954305,28 32,27.1045695 32,26 C32,24.8954305 32.8954305,24 34,24 Z M37,20 C38.1045695,20 39,20.8954305 39,22 C39,23.1045695 38.1045695,24 37,24 C35.8954305,24 35,23.1045695 35,22 C35,20.8954305 35.8954305,20 37,20 Z M30,40 C28.8954305,40 28,40.8954305 28,42 C28,43.1045695 28.8954305,44 30,44 C31.1045695,44 32,43.1045695 32,42 C32,40.8954305 31.1045695,40 30,40 Z M30,45 C28.8954305,45 28,45.8954305 28,47 C28,48.1045695 28.8954305,49 30,49 C31.1045695,49 32,48.1045695 32,47 C32,45.8954305 31.1045695,45 30,45 Z M25,46 C23.8954305,46 23,46.8954305 23,48 C23,49.1045695 23.8954305,50 25,50 C26.1045695,50 27,49.1045695 27,48 C27,46.8954305 26.1045695,46 25,46 Z M19,46 C17.8954305,46 17,46.8954305 17,48 C17,49.1045695 17.8954305,50 19,50 C20.1045695,50 21,49.1045695 21,48 C21,46.8954305 20.1045695,46 19,46 Z M14,45 C12.8954305,45 12,45.8954305 12,47 C12,48.1045695 12.8954305,49 14,49 C15.1045695,49 16,48.1045695 16,47 C16,45.8954305 15.1045695,45 14,45 Z" id="icon-github" fill="#000000"></path>
    </g>
</svg>